<svg xmlns="http://www.w3.org/2000/svg" version="1.1" xmlns:xlink="http://www.w3.org/1999/xlink" width="512" height="512" x="0" y="0" viewBox="0 0 32 32" style="enable-background:new 0 0 512 512" xml:space="preserve" class=""><g><path d="m26.44 15-3-3H25a3 3 0 0 0 0-6H4a2 2 0 0 0-2 2v14a2 2 0 0 0 2 2h2.35a3.48 3.48 0 0 0 6.3 0h6.7a3.48 3.48 0 0 0 6.3 0H28a2 2 0 0 0 2-2v-3a4 4 0 0 0-3.56-4zM9.5 24a1.5 1.5 0 1 1 1.5-1.5A1.5 1.5 0 0 1 9.5 24zm2.5-9a1 1 0 0 1-1 1H8a1 1 0 0 1-1-1v-3a1 1 0 0 1 1-1h3a1 1 0 0 1 1 1zm5-3h3.59l3 3H17zm5.5 12a1.5 1.5 0 1 1 1.5-1.5 1.5 1.5 0 0 1-1.5 1.5zm5.5-4h-1a1 1 0 0 1 0-2h.72a2 2 0 0 1 .28 1z" data-name="Layer 6" fill="#000000" opacity="1" data-original="#000000" class=""></path></g></svg>